<!--?xml version="1.0" encoding="utf-8"?-->
<!-- Generator: Adobe Illustrator 18.1.1, SVG Export Plug-In . SVG Version: 6.00 Build 0)  -->

<svg version="1.1" id="_x32_" xmlns="http://www.w3.org/2000/svg" xmlns:xlink="http://www.w3.org/1999/xlink" x="0px" y="0px" viewBox="0 0 512 512" style="width: 128px; height: 128px; opacity: 1;" xml:space="preserve">
<style type="text/css">
	.st0{fill:#4B4B4B;}
</style>
<g>
	<path class="st0" d="M512,255.997l-63.298-51.632L477.703,128l-80.641-13.072l-13.065-80.634L307.64,63.302L256,0.003l-9.083,11.13
		l-42.556,52.17L128.01,34.301l-13.072,80.634L34.304,128l28.995,76.364L0,255.99l63.299,51.633l-28.995,76.37l80.634,13.072
		l13.066,80.634l76.357-29.001L256,511.997l51.639-63.299l76.364,29.001l13.058-80.634l80.641-13.072l-29.001-76.37L512,255.997z
		 M376.634,376.637l-11.175,68.955l-65.3-24.803L256,474.92l-44.158-54.13l-65.3,24.796l-11.175-68.948l-68.955-11.182
		l24.796-65.312l-54.13-44.146l54.13-44.158l-24.796-65.3l68.955-11.175l11.175-68.956l65.3,24.803L256,37.087l44.158,54.124
		l65.3-24.803l11.175,68.956l68.961,11.175l-24.803,65.3l54.131,44.158l-54.131,44.146l24.803,65.312L376.634,376.637z" style="fill: rgb(255, 255, 255);"></path>
	<path class="st0" d="M193.741,236.582l-12.672,2.492c-0.668,0.137-1.033,0.667-0.903,1.346l9.43,47.972l-0.549,0.111l-36.345-42.68
		c-0.601-0.7-1.334-0.91-2.119-0.752l-13.457,2.648c-0.668,0.13-1.033,0.66-0.89,1.34l14.543,73.97
		c0.131,0.674,0.667,1.04,1.334,0.909l12.673-2.492c0.667-0.137,1.033-0.674,0.903-1.347l-9.417-47.859l0.562-0.111l36.423,42.55
		c0.601,0.7,1.23,0.922,2.131,0.752l13.34-2.629c0.667-0.131,1.033-0.667,0.889-1.347l-14.542-73.97
		C194.944,236.805,194.408,236.452,193.741,236.582z" style="fill: rgb(255, 255, 255);"></path>
	<path class="st0" d="M271.635,285.639l-32.852,6.46c-0.445,0.092-0.719-0.085-0.798-0.536l-3.113-15.805
		c-0.092-0.445,0.092-0.713,0.536-0.804l27.359-5.382c0.667-0.131,1.033-0.66,0.903-1.334l-2.341-11.882
		c-0.131-0.667-0.667-1.033-1.334-0.902l-27.36,5.382c-0.444,0.085-0.719-0.098-0.811-0.543l-2.968-15.132
		c-0.092-0.45,0.091-0.719,0.536-0.804l32.852-6.46c0.667-0.131,1.033-0.667,0.889-1.34l-2.354-11.987
		c-0.131-0.68-0.668-1.039-1.335-0.908l-48.873,9.612c-0.68,0.131-1.033,0.668-0.902,1.347l14.543,73.971
		c0.144,0.674,0.667,1.033,1.347,0.902l48.873-9.613c0.667-0.13,1.033-0.667,0.889-1.34l-2.354-11.993
		C272.838,285.874,272.302,285.508,271.635,285.639z" style="fill: rgb(255, 255, 255);"></path>
	<path class="st0" d="M360.227,203.847l-14.347,2.818c-0.784,0.151-1.164,0.582-1.124,1.393l-1.125,49.92l-0.236,0.046
		l-22.848-45.204c-0.366-0.641-0.902-0.994-1.569-0.863l-9.757,1.916c-0.772,0.157-1.138,0.686-1.23,1.412l-3.596,50.41
		l-0.222,0.046l-20.402-45.695c-0.235-0.661-0.772-1.014-1.556-0.857l-14.464,2.838c-0.785,0.157-0.915,0.647-0.667,1.301
		l34.264,70.093c0.366,0.628,0.902,0.994,1.57,0.863l11.208-2.21c0.784-0.15,1.15-0.693,1.242-1.406l4.015-50.03l0.222-0.046
		l22.547,44.806c0.353,0.628,0.889,0.994,1.674,0.837l11.208-2.204c0.785-0.15,1.255-0.712,1.243-1.412l5.061-77.829
		C361.312,204.089,361.012,203.691,360.227,203.847z" style="fill: rgb(255, 255, 255);"></path>
</g>
</svg>
