<svg xmlns="http://www.w3.org/2000/svg" viewBox="0 0 28.6 28.86"><defs><style>.cls-1{fill:#373838;}</style></defs><g id="レイヤー_2" data-name="レイヤー 2"><g id="レイヤー_1-2" data-name="レイヤー 1"><path class="cls-1" d="M11.12,26.34A8.54,8.54,0,0,1,4.85,28c-2.57-.39-3.64-2.43-3.64-5.45a26.06,26.06,0,0,1,1.07-6.52c.31-1.15.68-2.4,1.05-3.68C3.53,11.68,2.87,11,2,11H2c-.53,0-2-.95-2-1.43s1.45-.18,2-.18h1.2a1.35,1.35,0,0,0,1.33-.84C5.31,6,6.82.87,7.14.34c.66-1,1.78.36,2.21,1.13A2.91,2.91,0,0,1,9.8,4.18c-.19.56-.62,2-1.13,3.85-.19.7.47,1.36,1.35,1.36h1.33c.54,0,1.85.94,1.85,1.38s-1.31.23-1.85.23H9a1.34,1.34,0,0,0-1.35.89c-.32,1.29-.62,2.63-1,3.93C6,19.08,5.15,22.35,5.15,24.44c0,1.22.29,2,1,2.19,1.71.38,3.81-.93,4.73-1.72l.09-.07a20.21,20.21,0,0,0,2.23-2.69A.73.73,0,0,1,14.1,22c.24.14.36.43.12.92A10.67,10.67,0,0,1,11.12,26.34Zm9.19,1.17c-2.23.33-3.88-.15-5.09-1.48-.15.79-.35,1.69-.5,2.47-.06.37-.29.46-.62.24-.84-.54-1.56-1.43-1.38-3.66.24-3,4.41-17.18,6.24-21,.24-.52.57-.59,1.05-.19.91.82,1.39,2.33.49,5.21-.32,1.07-1.37,3.77-2.06,5.89,5-.51,8.31.42,9.55,2.8.85,1.9,1,3.64-.84,6S23.71,27,20.31,27.51Zm-2.51-10c-1.36,2-1.5,4-2.21,6.88A3.42,3.42,0,0,0,18,26.3c1.46.4,6.3.36,8-3.94a4.46,4.46,0,0,0-.36-4.13C24.61,16.72,21.25,16.25,17.8,17.53Z"/></g></g></svg>