<svg xmlns="http://www.w3.org/2000/svg" viewBox="0 0 207.5 207.5"><defs><style>.cls-1{fill:#e1b7be;}.cls-2{fill:#fff;}.cls-3{fill:none;stroke:#fff;stroke-miterlimit:10;stroke-width:12px;}</style></defs><g id="レイヤー_2" data-name="レイヤー 2"><g id="レイヤー_1-2" data-name="レイヤー 1"><rect class="cls-1" width="207.5" height="207.5"/><path class="cls-2" d="M65.28,93.33a1.29,1.29,0,0,1-1.13-.75L63.82,92a1.4,1.4,0,0,1,.5-1.91,33.47,33.47,0,0,0,8.86-8.73H57.48a1.31,1.31,0,0,1-1.4-1.4V79.7a1.31,1.31,0,0,1,1.4-1.4H76.42a1.31,1.31,0,0,1,1.4,1.4v.51a2.46,2.46,0,0,1-.39,1.37A43.2,43.2,0,0,1,66.12,93,1.5,1.5,0,0,1,65.28,93.33ZM78.16,76.18a1.44,1.44,0,0,1-.79-.25Q76,75,74.67,74a1.84,1.84,0,0,1,0,.41v.16A1.31,1.31,0,0,1,73.32,76H60.58a1.3,1.3,0,0,1-1.39-1.4v-.16a1.7,1.7,0,0,1,0-.4c-.88.65-1.78,1.27-2.69,1.88a1.52,1.52,0,0,1-.8.25,1.24,1.24,0,0,1-1.15-.85l-.22-.48A1.42,1.42,0,0,1,54.84,73a53.51,53.51,0,0,0,9.66-8.29A1.83,1.83,0,0,1,66,64.1h1.92a1.85,1.85,0,0,1,1.49.64A55.7,55.7,0,0,0,79,73a1.38,1.38,0,0,1,.53,1.83l-.22.49A1.23,1.23,0,0,1,78.16,76.18Zm-4.79-3.12A56.88,56.88,0,0,1,67,67.19a57.76,57.76,0,0,1-6.42,5.87H73.37Z"/><path class="cls-2" d="M55.14,73.43a54.22,54.22,0,0,0,9.73-8.35A1.33,1.33,0,0,1,66,64.6h1.92a1.33,1.33,0,0,1,1.12.48,56.9,56.9,0,0,0,9.69,8.35.89.89,0,0,1,.36,1.21l-.23.48a.75.75,0,0,1-1.21.39A56.67,56.67,0,0,1,67,66.45a57,57,0,0,1-10.69,9.06.75.75,0,0,1-1.21-.39l-.23-.48A.92.92,0,0,1,55.14,73.43Zm1.44,6.49V79.7a.81.81,0,0,1,.9-.9H76.42a.81.81,0,0,1,.9.9v.51A2,2,0,0,1,77,81.33a42.74,42.74,0,0,1-11.17,11.3.78.78,0,0,1-1.25-.29l-.32-.61a.93.93,0,0,1,.35-1.28,33.78,33.78,0,0,0,9.51-9.63H57.48A.81.81,0,0,1,56.58,79.92Zm17.63-5.47v.16a.81.81,0,0,1-.89.9H60.58a.81.81,0,0,1-.89-.9v-.16a.81.81,0,0,1,.89-.89H73.32A.81.81,0,0,1,74.21,74.45Z"/><path class="cls-2" d="M93,93.32a1.38,1.38,0,0,1-1-.44l-.4-.37c-.84-.78-.6-1.38-.37-1.66,2.34-3.19,3.22-6.91,3.22-13.71V66.42a1.31,1.31,0,0,1,1.4-1.4h16.31a1.31,1.31,0,0,1,1.4,1.4V88.75c0,3.65-.64,4.34-4,4.34-.24,0-.68,0-1.34,0L105.81,93a1.37,1.37,0,0,1-1.41-1.37,1.27,1.27,0,0,1,.33-1,1.29,1.29,0,0,1,1-.39h.11c1.91.09,3,.12,3.24.12a3.87,3.87,0,0,0,.69,0,11.42,11.42,0,0,0,0-1.26V83.21H97.92A18.85,18.85,0,0,1,94,92.77,1.3,1.3,0,0,1,93,93.32Zm16.84-12.74V75.21H98.2V78c0,.95,0,1.75-.08,2.54Zm0-8V67.69H98.2v4.89Z"/><path class="cls-2" d="M95.85,65.52h16.31a.81.81,0,0,1,.9.9V88.75c0,3.4-.42,3.84-3.55,3.84-.45,0-1.67-.06-3.68-.12a.87.87,0,0,1-.93-.9c0-.58.29-.9.93-.86,2,.09,3,.12,3.26.12,1.28,0,1.22,0,1.22-2.08v-6H97.48a18.5,18.5,0,0,1-3.87,9.76.77.77,0,0,1-1.25.06l-.42-.38c-.41-.39-.54-.71-.32-1,2.4-3.26,3.33-7,3.33-14V66.42A.81.81,0,0,1,95.85,65.52Zm1.85,9.19V78c0,1,0,2-.13,3h12.74V74.71Zm0-1.63h12.61V67.19H97.7Z"/><path class="cls-2" d="M140,91.47a1.15,1.15,0,0,1-1.25-1,1.18,1.18,0,0,1,1.11-1.37,10,10,0,0,0,6.64-3.78A12.06,12.06,0,0,0,148.4,77c-.35-3.06-1.88-5.69-4-6.85a10.65,10.65,0,0,0-2.83-.73,35.65,35.65,0,0,1-1.71,9.86c-1.28,3.86-3.52,8.45-6.87,8.45a3.35,3.35,0,0,1-.63,0,3.89,3.89,0,0,1-2.73-1.92c-1.48-2.4-1.35-6.67-.48-9.47,1.73-5.69,6.76-9.66,12.22-9.66a10.66,10.66,0,0,1,4.3.9,11.8,11.8,0,0,1,6.56,8.89c.56,3.29,0,8-3.14,11.15-2.22,2.25-5.07,3.48-9,3.89ZM138.3,69.92c-2.57,1.17-4.75,4-5.68,7.48-.58,2.2-.86,6.52.44,6.94h0c.78,0,2.14-1.91,3.63-6.18A33.64,33.64,0,0,0,138.3,69.92Z"/><path class="cls-2" d="M140.07,91c-.51,0-.8-.16-.86-.61s.19-.7.7-.8a10.5,10.5,0,0,0,6.94-4A12.58,12.58,0,0,0,148.9,77c-.35-3.07-1.86-5.92-4.25-7.23a9.62,9.62,0,0,0-3.56-.8,35.37,35.37,0,0,1-1.69,10.2c-.9,2.69-3.27,8.71-7,8.07-4-.68-3.87-7.36-2.81-10.75,2.14-7,9.53-11.2,15.84-8.45a11.27,11.27,0,0,1,6.27,8.51c.61,3.62-.26,7.94-3,10.72A13.51,13.51,0,0,1,140.07,91Zm-7.17-6.14c1.63.51,3.55-4.48,4.26-6.5a34.54,34.54,0,0,0,1.69-9.15c-2.84.93-5.6,3.94-6.72,8.1C131.62,79.22,131.05,84.21,132.9,84.82Z"/><path class="cls-2" d="M29.52,140a1.08,1.08,0,0,1-1-.7,1.25,1.25,0,0,1,.54-1.71c6.47-4.4,10.63-10,13.82-18.63H32.77a1.25,1.25,0,0,1-1.36-1.36,1.29,1.29,0,0,1,1.34-1.37H46.47a1.41,1.41,0,0,1,1.3.57,1.53,1.53,0,0,1,0,1.36,49.13,49.13,0,0,1-4.46,9.41,41,41,0,0,1,8.12,8.88,1.34,1.34,0,0,1-.31,1.89l-1.3,1a1.35,1.35,0,0,1-.85.35,1.23,1.23,0,0,1-1.08-.72,49.26,49.26,0,0,0-6.33-9.1,34.39,34.39,0,0,1-11.26,9.84A1.6,1.6,0,0,1,29.52,140Z"/><path class="cls-2" d="M47.33,117.05a1,1,0,0,1,0,.93,48.26,48.26,0,0,1-4.64,9.7,41.12,41.12,0,0,1,8.35,9,.84.84,0,0,1-.19,1.22L49.51,139a.71.71,0,0,1-1.19-.22,49.21,49.21,0,0,0-6.81-9.66,33.61,33.61,0,0,1-11.46,10.2c-.48.29-.89.23-1.08-.22a.76.76,0,0,1,.35-1.09c7-4.77,11.13-10.78,14.27-19.55H32.77a.76.76,0,0,1-.86-.86.79.79,0,0,1,.86-.87h13.7C47,116.73,47.2,116.83,47.33,117.05Z"/><path class="cls-2" d="M60.49,141.34a1.19,1.19,0,0,1-1-.6,1.29,1.29,0,0,1,.25-1.79c4.35-3.78,6.36-8.21,7.09-15.7h-6a23.06,23.06,0,0,1-4.53,6.24,1.37,1.37,0,0,1-2-1.86c2.44-2.87,4.16-6.88,5.45-12.64a1.2,1.2,0,0,1,1.21-1,1.51,1.51,0,0,1,.41.06l1.5.42a1.25,1.25,0,0,1,.92,1.62,45.22,45.22,0,0,1-1.55,4.44h13.9a1.26,1.26,0,0,1,1.33,1.27v.16a1.24,1.24,0,0,1-.31,1,1.33,1.33,0,0,1-1,.38H70.93c-.77,7.88-3.82,13.54-9.6,17.79A1.44,1.44,0,0,1,60.49,141.34Z"/><path class="cls-2" d="M76.9,121.79v.13a.71.71,0,0,1-.8.83H70.47c-.64,7.58-3.43,13.47-9.44,17.88a.7.7,0,0,1-1.12-.16.79.79,0,0,1,.16-1.15c4.89-4.25,6.65-9.21,7.29-16.57H60.45a22.47,22.47,0,0,1-4.57,6.4.76.76,0,0,1-1.19,0l0,0a.83.83,0,0,1,0-1.19c2.91-3.42,4.48-8.09,5.54-12.83a.74.74,0,0,1,1-.61l1.47.42a.77.77,0,0,1,.58,1A44,44,0,0,1,61.41,121H76.07A.76.76,0,0,1,76.9,121.79Z"/><path class="cls-2" d="M83.83,140.74a1.21,1.21,0,0,1-1.16-.9L82,138.39a1.32,1.32,0,0,1,.76-1.8c7.52-3.12,13.07-8.16,18-16.34a1.24,1.24,0,0,1,1.1-.73,1.43,1.43,0,0,1,.69.2,1.32,1.32,0,0,1,.56,1.8,37.69,37.69,0,0,1-18.57,19A1.52,1.52,0,0,1,83.83,140.74Zm3.25-12.55a1.36,1.36,0,0,1-.92-.4,39.33,39.33,0,0,0-5.11-4,1.43,1.43,0,0,1-.64-.81,1.56,1.56,0,0,1,1.33-1.78,1.32,1.32,0,0,1,.51.1,35.17,35.17,0,0,1,6.18,3.25,1.28,1.28,0,0,1,.41,1.91l-.71,1.06A1.21,1.21,0,0,1,87.08,128.19Zm2.79-6a1.37,1.37,0,0,1-.93-.41,51.9,51.9,0,0,0-5-3.92A1.29,1.29,0,0,1,83.5,116l0-.07,0,0a1.24,1.24,0,0,1,1.1-.69,1.58,1.58,0,0,1,.58.12,35.3,35.3,0,0,1,6,3.21,1.42,1.42,0,0,1,.66.86,1.37,1.37,0,0,1-.25,1.06l-.7,1A1.25,1.25,0,0,1,89.87,122.18ZM101,119a1.23,1.23,0,0,1-1.36-1.18A1.23,1.23,0,0,1,98.31,119h-.07a1.2,1.2,0,0,1-1.33-1.3v-3.55a1.2,1.2,0,0,1,1.33-1.3,1.26,1.26,0,0,1,1.43,1.18,1.23,1.23,0,0,1,1.36-1.18,1.22,1.22,0,0,1,1.39,1.3v3.55a1.19,1.19,0,0,1-1.33,1.3Z"/><path class="cls-2" d="M86.5,127.42a39,39,0,0,0-5.18-4,.76.76,0,0,1-.29-1.15.79.79,0,0,1,1.06-.45,34.54,34.54,0,0,1,6.08,3.2.78.78,0,0,1,.25,1.21l-.7,1.06A.71.71,0,0,1,86.5,127.42Zm-3.58,9.63c7.77-3.23,13.31-8.38,18.24-16.54a.73.73,0,0,1,1.12-.35.83.83,0,0,1,.35,1.15,37.1,37.1,0,0,1-18.34,18.81.74.74,0,0,1-1.15-.45l-.73-1.5A.8.8,0,0,1,82.92,137.05Zm2.14-21.25A36.2,36.2,0,0,1,91,119a.79.79,0,0,1,.26,1.22l-.71,1a.7.7,0,0,1-1.21.16,53.58,53.58,0,0,0-5-4,.81.81,0,0,1-.32-1.19l0,0A.78.78,0,0,1,85.06,115.8Zm14.11,1.92c0,.55-.32.8-.86.8h-.07c-.57,0-.83-.25-.83-.8v-3.55c0-.54.26-.8.83-.8h.07c.54,0,.86.26.86.8Zm2.75,0c0,.55-.25.8-.83.8H101c-.55,0-.87-.25-.87-.8v-3.55c0-.54.32-.8.87-.8h.06c.58,0,.83.26.83.8Z"/><path class="cls-2" d="M107.72,138.89a1.36,1.36,0,1,1,0-2.72h10.47v-9.75h-7.78a1.37,1.37,0,1,1,0-2.73h10.33a1.31,1.31,0,0,1,1.4,1.39L122,136.17h3.37a1.36,1.36,0,1,1,0,2.72Z"/><path class="cls-2" d="M126.28,137.53a.78.78,0,0,1-.9.86H107.72a.86.86,0,1,1,0-1.72h11V125.92h-8.28a.87.87,0,1,1,0-1.73h10.33a.81.81,0,0,1,.9.89l-.13,11.59h3.87A.78.78,0,0,1,126.28,137.53Z"/><rect class="cls-2" x="130.45" y="126.34" width="23.4" height="2.98" rx="1.4"/><path class="cls-2" d="M153.35,127.74v.19a.81.81,0,0,1-.9.9h-20.6a.81.81,0,0,1-.9-.9v-.19a.81.81,0,0,1,.9-.9h20.6A.81.81,0,0,1,153.35,127.74Z"/><path class="cls-2" d="M168.89,139.85a1.56,1.56,0,0,1-.91-.31l-.72-.52a1.72,1.72,0,0,1-.78-1.42V115.93a1.26,1.26,0,0,1,1.32-1.36H169a1.31,1.31,0,0,1,1.39,1.39v19.09a33.63,33.63,0,0,0,8-10.39,1.29,1.29,0,0,1,1.14-.79,1.47,1.47,0,0,1,.83.29,1.25,1.25,0,0,1,.37,1.63c-2.75,6.36-6.32,10.87-10.91,13.79A1.72,1.72,0,0,1,168.89,139.85Zm-12.23-.15a1.34,1.34,0,0,1-1-.49,1.32,1.32,0,0,1,0-1.78c3.85-5.14,4.73-10.18,5-17.71a1.3,1.3,0,0,1,1.35-1.35h1.29a1.33,1.33,0,0,1,1,.39,1.41,1.41,0,0,1,.36,1.09c-.45,8.82-2.56,14.61-7,19.36A1.36,1.36,0,0,1,156.66,139.7Z"/><path class="cls-2" d="M164.2,119.84c-.39,7.55-1.95,13.79-6.91,19a.76.76,0,0,1-1.25,0c-.29-.32-.26-.7.06-1.15,4.1-5.47,4.83-10.94,5.09-18a.8.8,0,0,1,.93-.86h1.21A.81.81,0,0,1,164.2,119.84Zm14.59,5a.8.8,0,1,1,1.44.71c-2.24,5.18-5.44,10.2-10.72,13.56a1,1,0,0,1-1.25,0l-.7-.51a1.23,1.23,0,0,1-.58-1.06V115.93a.78.78,0,0,1,.9-.86H169a.81.81,0,0,1,.89.89v20.13A33,33,0,0,0,178.79,124.89Z"/><text/><rect class="cls-3" x="18.27" y="21.79" width="170.97" height="163.91"/><rect class="cls-1" x="106.82" y="170.63" width="90.95" height="26.75"/><path class="cls-2" d="M119.37,190.77a1.27,1.27,0,0,1-1.44-1.22V177.1H115a1.27,1.27,0,0,1-1.44-1.22c0-.71.58-1.18,1.44-1.18h9.47a1.27,1.27,0,0,1,1.44,1.22c0,.71-.58,1.18-1.44,1.18h-2.93v12.45a1.27,1.27,0,0,1-1.44,1.22Z"/><path class="cls-2" d="M114.32,175.88c0-.35.24-.54.68-.54h9.47c.44,0,.68.21.68.58s-.24.54-.68.54h-3.69v13.09c0,.37-.24.57-.68.57h-.73c-.44,0-.68-.2-.68-.57V176.46H115C114.56,176.46,114.32,176.25,114.32,175.88Z"/><path class="cls-2" d="M133.59,191c-2.42,0-4.11-1.54-4.11-3.75,0-2.68,2.46-4.28,6.57-4.28h.16v0c0-1.7-.46-1.77-1.5-1.77a7.94,7.94,0,0,0-2.78.56,1.94,1.94,0,0,1-.64.12,1.25,1.25,0,0,1-.93-.37,1.11,1.11,0,0,1-.29-.77,1.28,1.28,0,0,1,1-1.26,11.58,11.58,0,0,1,3.65-.59c3.66,0,5.08,1.26,5.08,4.49v6.24a1.27,1.27,0,0,1-1.44,1.22h-.6a1.49,1.49,0,0,1-1.23-.53A6,6,0,0,1,133.59,191Zm2.46-5.89c-2.65,0-3,1.08-3,2s.42,1.56.82,1.56c1.39,0,2.32-1.25,2.32-3.11v-.47Z"/><path class="cls-2" d="M137,182.9c0-1.86-.61-2.42-2.26-2.42a8.81,8.81,0,0,0-3.08.62c-.49.17-.8,0-.8-.43a.63.63,0,0,1,.51-.66,10.72,10.72,0,0,1,3.37-.54c3.28,0,4.32,1,4.32,3.84v6.24c0,.37-.24.57-.68.57h-.6c-.44,0-.68-.2-.71-.57v-.62a4.48,4.48,0,0,1-3.45,1.4,3.07,3.07,0,0,1-3.35-3.1c0-2.06,1.78-3.63,5.81-3.63H137Zm-.92,1.55c-2.46,0-3.74.86-3.74,2.66,0,1.4.7,2.21,1.58,2.21,1.72,0,3.08-1.41,3.08-3.76v-1.11Z"/><path class="cls-2" d="M148.5,195.35a10.75,10.75,0,0,1-2.92-.38,1.28,1.28,0,0,1-1-1.27,1.09,1.09,0,0,1,1.18-1.1,2,2,0,0,1,.69.14,5.83,5.83,0,0,0,2.09.37c1.05,0,2.08-.23,2.23-2.78a5.73,5.73,0,0,1-2.26.44c-3.08,0-5.08-2.36-5.08-6s1.9-5.94,5.08-5.94a5.38,5.38,0,0,1,2.64.66,1.5,1.5,0,0,1,1.15-.45h.61a1.27,1.27,0,0,1,1.44,1.22v9.4C154.31,193.43,152.35,195.35,148.5,195.35Zm.36-14.29c-1.7,0-1.89,2.59-1.89,3.7,0,2.29.75,3.77,1.89,3.77a2.35,2.35,0,0,0,1.89-2.51v-2.4A2.38,2.38,0,0,0,148.86,181.06Z"/><path class="cls-2" d="M152.26,179.68h.61c.44,0,.68.2.68.57v9.4c0,3.36-1.53,5.06-5.05,5.06a9.92,9.92,0,0,1-2.67-.35.63.63,0,0,1-.54-.66c0-.42.32-.56.81-.38a6.53,6.53,0,0,0,2.4.44c2.06,0,3-1.16,3-4.13v-.58a4.51,4.51,0,0,1-3,1.07c-2.67,0-4.32-2.06-4.32-5.36,0-3.47,1.65-5.29,4.32-5.29a4.34,4.34,0,0,1,3.09,1.2v-.42C151.58,179.88,151.83,179.68,152.26,179.68Zm-3.4.74c-1.65,0-2.64,1.45-2.64,4.34s1.11,4.41,2.64,4.41a3,3,0,0,0,2.65-3.15v-2.4A3,3,0,0,0,148.86,180.42Z"/><path class="cls-2" d="M162.24,191c-2.42,0-4.11-1.54-4.11-3.75,0-2.68,2.45-4.28,6.56-4.28h.16v0c0-1.7-.46-1.77-1.5-1.77a8,8,0,0,0-2.78.56,1.94,1.94,0,0,1-.64.12,1.27,1.27,0,0,1-.93-.37,1.11,1.11,0,0,1-.29-.77,1.29,1.29,0,0,1,1-1.26,11.63,11.63,0,0,1,3.65-.59c3.66,0,5.09,1.26,5.09,4.49v6.24a1.27,1.27,0,0,1-1.44,1.22h-.61a1.49,1.49,0,0,1-1.23-.53A5.89,5.89,0,0,1,162.24,191Zm2.45-5.89c-2.64,0-3,1.08-3,2s.42,1.56.82,1.56c1.39,0,2.32-1.25,2.32-3.11v-.47Z"/><path class="cls-2" d="M165.61,182.9c0-1.86-.6-2.42-2.26-2.42a8.86,8.86,0,0,0-3.08.62c-.49.17-.8,0-.8-.43A.64.64,0,0,1,160,180a10.72,10.72,0,0,1,3.37-.54c3.28,0,4.33,1,4.33,3.84v6.24c0,.37-.25.57-.68.57h-.61c-.44,0-.68-.2-.7-.57v-.62a4.51,4.51,0,0,1-3.45,1.4,3.06,3.06,0,0,1-3.35-3.1c0-2.06,1.77-3.63,5.8-3.63h.92Zm-.92,1.55c-2.45,0-3.74.86-3.74,2.66,0,1.4.7,2.21,1.58,2.21,1.72,0,3.08-1.41,3.08-3.76v-1.11Z"/><path class="cls-2" d="M173.94,190.77a1.27,1.27,0,0,1-1.44-1.22v-9.3a1.27,1.27,0,0,1,1.44-1.22h.68a1.32,1.32,0,0,1,1.4.91,7.07,7.07,0,0,1,3.53-.91,1.26,1.26,0,0,1,1.41,1.22c0,.69-.57,1.16-1.41,1.17h0c-2.81,0-3.4,2.05-3.4,3.77v4.36c0,.73-.57,1.22-1.44,1.22Z"/><path class="cls-2" d="M174.71,190.12h-.77c-.44,0-.68-.2-.68-.57v-9.3c0-.37.24-.57.68-.57h.68c.43,0,.68.2.68.57v1.14a5.74,5.74,0,0,1,4.25-1.71c.43,0,.65.2.65.57s-.24.52-.68.52h0c-2.58,0-4.16,1.51-4.16,4.42v4.36C175.39,189.92,175.15,190.12,174.71,190.12Z"/><path class="cls-2" d="M188.21,191c-2.42,0-4.11-1.54-4.11-3.75,0-2.68,2.45-4.28,6.56-4.28h.17v0c0-1.7-.46-1.77-1.5-1.77a7.94,7.94,0,0,0-2.78.56,2,2,0,0,1-.64.12,1.23,1.23,0,0,1-.93-.37,1.06,1.06,0,0,1-.3-.77,1.29,1.29,0,0,1,1-1.26,11.69,11.69,0,0,1,3.66-.59c3.65,0,5.08,1.26,5.08,4.49v6.24a1.27,1.27,0,0,1-1.44,1.22h-.61a1.5,1.5,0,0,1-1.23-.53A5.89,5.89,0,0,1,188.21,191Zm2.45-5.89c-2.64,0-3,1.08-3,2s.42,1.56.82,1.56c1.39,0,2.33-1.25,2.33-3.11v-.47Z"/><path class="cls-2" d="M191.59,182.9c0-1.86-.61-2.42-2.26-2.42a8.86,8.86,0,0,0-3.09.62c-.48.17-.8,0-.8-.43A.64.64,0,0,1,186,180a10.78,10.78,0,0,1,3.38-.54c3.28,0,4.32,1,4.32,3.84v6.24c0,.37-.24.57-.68.57h-.61c-.43,0-.68-.2-.7-.57v-.62a4.49,4.49,0,0,1-3.45,1.4,3.07,3.07,0,0,1-3.35-3.1c0-2.06,1.77-3.63,5.8-3.63h.93Zm-.93,1.55c-2.45,0-3.74.86-3.74,2.66,0,1.4.71,2.21,1.58,2.21,1.73,0,3.09-1.41,3.09-3.76v-1.11Z"/><rect class="cls-1" x="7.58" y="9.97" width="99.22" height="25"/><path class="cls-2" d="M17,27.75a6.54,6.54,0,0,1-3.35-.89,1.35,1.35,0,0,1-.67-1.24v-.24a1,1,0,0,1,1-1.11,1.23,1.23,0,0,1,.77.3,3.43,3.43,0,0,0,2.21.82c1.08,0,1.79-.37,1.79-2.21a2.57,2.57,0,0,0-1.91-2.67c-2.66-1.12-4-2.77-4-4.9A3.94,3.94,0,0,1,17,11.49a8.08,8.08,0,0,1,3.49.77,1.28,1.28,0,0,1,.77,1.25v.16a1,1,0,0,1-1,1.12,1.31,1.31,0,0,1-.68-.21,4.7,4.7,0,0,0-2.5-.78c-.64,0-1.38.2-1.38,1.81a2.46,2.46,0,0,0,1.65,2.44c3.11,1.27,4.31,2.71,4.31,5.13C21.72,26.08,20,27.75,17,27.75Z"/><path class="cls-2" d="M14.27,25.07a4,4,0,0,0,2.6,1c1.59,0,2.43-.85,2.43-2.85A3.21,3.21,0,0,0,17,19.92c-2.49-1-3.63-2.48-3.63-4.31A3.32,3.32,0,0,1,17,12.12a7.39,7.39,0,0,1,3.21.72.64.64,0,0,1,.41.67v.16c0,.47-.28.61-.69.37a5.35,5.35,0,0,0-2.83-.88c-1.2,0-2,.69-2,2.45a3.09,3.09,0,0,0,2.06,3c2.93,1.2,3.91,2.44,3.91,4.54,0,2.48-1.39,3.93-4.13,3.93a6,6,0,0,1-3-.79.74.74,0,0,1-.36-.7v-.24C13.58,24.89,13.88,24.77,14.27,25.07Z"/><path class="cls-2" d="M29.31,27.75c-3.15,0-4.95-2.19-4.95-6s1.75-6,4.81-6a9.33,9.33,0,0,1,2.29.29,1.22,1.22,0,0,1,.95,1.25,1,1,0,0,1-1,1.08,1.6,1.6,0,0,1-.55-.1A4.85,4.85,0,0,0,29.25,18c-.46,0-1.85,0-1.85,3.74s1.41,3.75,2,3.75a3.9,3.9,0,0,0,1.53-.34,1.39,1.39,0,0,1,.54-.12,1,1,0,0,1,1,1.11,1.23,1.23,0,0,1-.88,1.22A7.29,7.29,0,0,1,29.31,27.75Z"/><path class="cls-2" d="M26.76,21.75c0,3.1.92,4.38,2.65,4.38a4.48,4.48,0,0,0,1.77-.38c.41-.17.67,0,.67.4a.58.58,0,0,1-.44.61,6.52,6.52,0,0,1-2.1.35c-2.83,0-4.32-1.93-4.32-5.36s1.47-5.35,4.18-5.35a9.16,9.16,0,0,1,2.14.26.59.59,0,0,1,.46.64c0,.4-.28.55-.73.38a5.6,5.6,0,0,0-1.79-.3C27.64,17.38,26.76,18.76,26.76,21.75Z"/><path class="cls-2" d="M43.11,27.54a1.14,1.14,0,0,1-1.21-1.2V21c0-3-.56-3-1.11-3s-1.67,1.25-1.67,2.58v5.73a1.13,1.13,0,0,1-1.2,1.2h-.59a1.14,1.14,0,0,1-1.21-1.2V12.49a1.15,1.15,0,0,1,1.21-1.21h.59a1.14,1.14,0,0,1,1.2,1.21v3.83a4,4,0,0,1,2-.56c3.32,0,3.75,2.66,3.75,5v5.6a1.14,1.14,0,0,1-1.21,1.2Z"/><path class="cls-2" d="M36.76,26.34V12.49a.51.51,0,0,1,.57-.57h.59a.52.52,0,0,1,.57.57v5.19a3.5,3.5,0,0,1,2.65-1.28c2.22,0,3.11,1.26,3.11,4.34v5.6a.52.52,0,0,1-.57.57h-.57a.52.52,0,0,1-.57-.57V21c0-2.87-.53-3.6-1.75-3.6-1,0-2.3,1.63-2.3,3.21v5.73a.52.52,0,0,1-.57.57h-.59A.52.52,0,0,1,36.76,26.34Z"/><path class="cls-2" d="M52.86,27.75c-3.26,0-5.06-2.13-5.06-6,0-5.21,3-6,4.71-6,2,0,4.39,1,4.39,5.85a1.22,1.22,0,0,1,0,.33c0,.07-.07.72-1.17.72H50.83c.22,2.92,1.61,2.92,2.15,2.92a4.4,4.4,0,0,0,1.78-.44,1.3,1.3,0,0,1,.57-.14,1,1,0,0,1,1,1.13,1.21,1.21,0,0,1-.89,1.18A8.27,8.27,0,0,1,52.86,27.75Zm1.06-7.28c-.08-1.27-.4-2.54-1.41-2.54-.36,0-1.41,0-1.66,2.54Z"/><path class="cls-2" d="M53,26.21a5,5,0,0,0,2-.49c.4-.2.67,0,.67.41a.55.55,0,0,1-.45.57,7.36,7.36,0,0,1-2.38.41c-2.93,0-4.42-1.87-4.42-5.36s1.49-5.35,4.07-5.35,3.75,1.81,3.75,5.21a1,1,0,0,1,0,.21c0,.12-.18.2-.55.2H50.17C50.21,24.91,51.19,26.21,53,26.21Zm-.47-8.91c-1.42,0-2.24,1.18-2.34,3.8h4.4C54.57,18.5,53.8,17.3,52.51,17.3Z"/><path class="cls-2" d="M63.83,27.75c-2.61,0-4.36-2.41-4.36-6s1.67-6,4.36-6a4.2,4.2,0,0,1,2,.48V12.49A1.14,1.14,0,0,1,67,11.28h.59a1.14,1.14,0,0,1,1.2,1.21V26.34a1.13,1.13,0,0,1-1.2,1.2h-.51a1.15,1.15,0,0,1-1-.45A4.1,4.1,0,0,1,63.83,27.75ZM64.11,18c-1.5,0-1.66,2.65-1.66,3.78,0,2.37.62,3.79,1.66,3.79a2.13,2.13,0,0,0,1.67-2.22V20.19A2.13,2.13,0,0,0,64.11,18Z"/><path class="cls-2" d="M67,11.92h.59a.52.52,0,0,1,.57.57V26.34a.52.52,0,0,1-.57.57h-.51a.52.52,0,0,1-.57-.57v-.43a3.48,3.48,0,0,1-2.67,1.2c-2.26,0-3.73-2.12-3.73-5.36s1.39-5.35,3.73-5.35a3.56,3.56,0,0,1,2.59,1.1v-5A.51.51,0,0,1,67,11.92Zm-2.88,5.42c-1.42,0-2.3,1.46-2.3,4.41s.94,4.42,2.3,4.42a2.74,2.74,0,0,0,2.31-2.85V20.19A2.73,2.73,0,0,0,64.11,17.34Z"/><path class="cls-2" d="M76.18,27.75c-3.29,0-3.67-2.69-3.67-4.71V17.17A1.14,1.14,0,0,1,73.72,16h.55a1.14,1.14,0,0,1,1.21,1.2v5.66c0,2.71.66,2.71,1,2.71.62,0,1.64-1.18,1.64-2.52V17.17A1.14,1.14,0,0,1,79.38,16H80a1.14,1.14,0,0,1,1.21,1.2v9.17A1.14,1.14,0,0,1,80,27.54h-.51a1.16,1.16,0,0,1-1-.47A4.13,4.13,0,0,1,76.18,27.75Z"/><path class="cls-2" d="M73.72,16.6h.55a.52.52,0,0,1,.57.57v5.66c0,2.57.59,3.34,1.69,3.34s2.28-1.48,2.28-3.15V17.17a.52.52,0,0,1,.57-.57H80a.52.52,0,0,1,.57.57v9.17a.52.52,0,0,1-.57.57h-.51a.52.52,0,0,1-.57-.57v-.49a3.51,3.51,0,0,1-2.71,1.26c-2.15,0-3-1.22-3-4.07V17.17A.52.52,0,0,1,73.72,16.6Z"/><rect class="cls-2" x="85.09" y="11.28" width="3.02" height="16.26" rx="1.21"/><path class="cls-2" d="M87.48,12.49V26.34a.52.52,0,0,1-.57.57H86.3a.52.52,0,0,1-.57-.57V12.49a.51.51,0,0,1,.57-.57h.61A.51.51,0,0,1,87.48,12.49Z"/><path class="cls-2" d="M96.48,27.75c-3.26,0-5.06-2.13-5.06-6,0-5.21,3-6,4.71-6,2,0,4.38,1,4.38,5.85a1.62,1.62,0,0,1,0,.33c0,.07-.07.72-1.17.72H94.45c.22,2.92,1.61,2.92,2.15,2.92a4.4,4.4,0,0,0,1.78-.44A1.26,1.26,0,0,1,99,25a1,1,0,0,1,1,1.13,1.2,1.2,0,0,1-.88,1.18A8.27,8.27,0,0,1,96.48,27.75Zm1-7.28c-.07-1.27-.39-2.54-1.4-2.54-.36,0-1.41,0-1.66,2.54Z"/><path class="cls-2" d="M96.6,26.21a4.89,4.89,0,0,0,2-.49c.41-.2.68,0,.68.41a.56.56,0,0,1-.45.57,7.4,7.4,0,0,1-2.38.41c-2.94,0-4.42-1.87-4.42-5.36s1.48-5.35,4.07-5.35,3.75,1.81,3.75,5.21a1,1,0,0,1,0,.21c0,.12-.19.2-.55.2H93.79C93.83,24.91,94.81,26.21,96.6,26.21Zm-.47-8.91c-1.42,0-2.24,1.18-2.34,3.8h4.4C98.19,18.5,97.41,17.3,96.13,17.3Z"/></g></g></svg>